<?xml version="1.0" standalone="no"?>
<!DOCTYPE svg PUBLIC "-//W3C//DTD SVG 20010904//EN"
 "http://www.w3.org/TR/2001/REC-SVG-20010904/DTD/svg10.dtd">
<svg version="1.0" xmlns="http://www.w3.org/2000/svg"
 width="338.000000pt" height="108.000000pt" viewBox="0 0 338.000000 108.000000"
 preserveAspectRatio="xMidYMid meet">

<g transform="translate(0.000000,108.000000) scale(0.100000,-0.100000)"
fill="#000000" stroke="none">
<path d="M973 974 c-164 -13 -263 -35 -263 -59 0 -8 1 -15 3 -15 1 0 31 9 65
20 93 29 280 44 477 37 94 -4 181 -9 195 -11 14 -2 59 -10 100 -16 84 -14 160
-45 160 -66 0 -32 -83 -52 -257 -60 l-122 -7 -3 53 c-4 75 -28 80 -28 7 0 -53
-1 -55 -31 -61 -17 -3 -96 -6 -175 -6 -121 0 -144 -2 -144 -15 0 -19 21 -23
170 -29 192 -9 180 -1 180 -107 0 -53 4 -89 10 -89 6 0 11 15 12 33 0 17 2 37
3 42 2 6 3 30 4 54 l1 44 53 -6 c140 -17 320 -82 378 -137 72 -68 44 -114
-102 -164 -151 -51 -318 -68 -674 -70 -369 -1 -463 9 -650 67 -43 13 -62 23
-50 25 38 7 37 20 -2 26 -97 14 -149 9 -141 -16 7 -19 215 -80 358 -104 277
-47 747 -42 1031 11 193 35 299 92 299 159 -1 91 -108 154 -348 208 -75 16
-141 34 -146 39 -6 5 14 9 50 9 225 1 385 51 353 112 -28 52 -122 74 -389 92
-177 12 -229 12 -377 0z m324 -210 c-3 -3 -12 -4 -19 -1 -8 3 -5 6 6 6 11 1
17 -2 13 -5z"/>
<path d="M2971 937 c-17 -17 -13 -51 9 -65 17 -10 20 -10 20 5 0 14 2 15 9 4
5 -7 14 -10 20 -7 14 9 15 53 1 61 -20 12 -48 13 -59 2z"/>
<path d="M2734 829 c-9 -15 19 -36 70 -51 39 -12 37 -13 -85 -29 -68 -10 -185
-20 -259 -24 -114 -6 -141 -5 -174 9 -48 20 -121 25 -137 9 -6 -6 -8 -20 -4
-32 7 -24 57 -36 116 -28 32 4 44 1 59 -16 33 -35 23 -89 -21 -107 -69 -29
-159 14 -159 76 0 15 -6 24 -15 24 -15 0 -16 -4 -19 -60 -1 -32 -18 -50 -48
-50 -23 0 -23 24 -1 61 12 21 14 32 6 40 -13 13 -50 -42 -59 -89 -5 -27 -3
-33 19 -43 22 -10 32 -8 67 10 38 19 43 20 70 6 41 -21 128 -19 165 4 37 22
59 80 44 118 -5 14 -8 27 -7 29 2 1 66 8 143 13 77 6 174 15 215 21 41 5 89 9
105 9 28 0 26 -2 -22 -26 -37 -18 -53 -32 -53 -46 0 -17 5 -18 38 -12 40 7 93
35 132 71 14 12 44 27 68 34 51 13 51 32 1 41 -19 3 -39 8 -45 12 -6 3 -42 11
-80 17 -38 6 -81 13 -96 16 -15 3 -29 0 -34 -7z"/>
<path d="M1922 653 c-13 -3 -26 -12 -29 -21 -2 -9 -10 -27 -15 -39 -14 -28 -4
-53 21 -53 27 0 51 26 51 55 0 13 5 27 10 30 14 9 12 35 -2 34 -7 -1 -23 -4
-36 -6z"/>
<path d="M1030 166 c0 -44 1 -46 29 -46 38 0 52 19 42 56 -6 23 -14 30 -39 32
-32 3 -32 3 -32 -42z m50 -16 c0 -5 -5 -10 -11 -10 -5 0 -7 5 -4 10 3 6 8 10
11 10 2 0 4 -4 4 -10z"/>
<path d="M1152 202 c-34 -22 -14 -82 28 -82 20 0 50 25 50 41 0 39 -44 62 -78
41z m43 -52 c-6 -20 -9 -21 -22 -7 -10 9 -13 23 -8 37 6 20 9 21 22 7 10 -9
13 -23 8 -37z"/>
<path d="M1255 193 c4 -10 12 -30 17 -45 12 -34 21 -35 36 -5 l11 22 7 -22 c9
-33 21 -28 39 13 19 45 19 54 1 54 -9 0 -12 -7 -9 -20 3 -11 1 -20 -5 -20 -6
0 -14 9 -17 20 -8 26 -21 25 -30 -2 l-8 -23 -4 23 c-3 14 -12 22 -25 22 -15 0
-18 -4 -13 -17z"/>
<path d="M1410 196 c0 -22 17 -28 24 -10 9 22 8 24 -9 24 -8 0 -15 -6 -15 -14z"/>
<path d="M1472 198 c-18 -18 -15 -26 16 -43 l27 -16 -28 6 c-21 4 -28 2 -25
-7 6 -18 66 -19 73 -1 3 8 2 20 -2 26 -4 7 -6 20 -5 30 4 20 -37 24 -56 5z
m33 -8 c3 -5 1 -10 -4 -10 -6 0 -11 5 -11 10 0 6 2 10 4 10 3 0 8 -4 11 -10z"/>
<path d="M1625 165 c0 -41 2 -45 25 -45 36 0 49 12 46 41 -4 37 -14 49 -44 49
-25 0 -27 -3 -27 -45z m45 -15 c0 -5 -5 -10 -11 -10 -5 0 -7 5 -4 10 3 6 8 10
11 10 2 0 4 -4 4 -10z"/>
<path d="M1739 168 c5 -38 9 -43 34 -46 28 -3 31 0 41 56 4 24 2 32 -9 32 -11
0 -13 -8 -9 -29 4 -17 1 -32 -6 -36 -16 -10 -23 0 -23 35 0 21 -5 30 -17 30
-13 0 -15 -7 -11 -42z"/>
<path d="M1853 194 c-4 -11 2 -23 18 -35 13 -10 19 -19 12 -19 -6 0 -15 5 -19
11 -4 8 -9 8 -17 0 -17 -17 5 -33 39 -29 27 3 29 6 29 43 0 36 -3 40 -28 43
-18 2 -29 -2 -34 -14z"/>
<path d="M1955 165 c0 -37 3 -45 18 -45 11 0 17 6 15 16 -2 10 3 19 11 22 10
3 12 -1 8 -17 -4 -17 -1 -21 16 -21 19 0 22 6 22 45 0 40 -2 45 -21 45 -18 0
-21 -4 -17 -21 4 -16 2 -20 -8 -17 -8 3 -13 12 -11 22 2 10 -4 16 -15 16 -15
0 -18 -8 -18 -45z"/>
<path d="M2092 198 c-6 -6 -12 -21 -12 -33 0 -41 45 -60 71 -29 11 13 9 14
-14 9 -24 -6 -27 -4 -27 20 0 24 3 26 26 21 19 -5 25 -3 22 6 -6 18 -50 22
-66 6z"/>
<path d="M2188 165 c3 -35 8 -45 22 -45 10 0 21 6 23 13 4 10 6 10 6 0 1 -7 8
-13 17 -13 11 0 14 5 9 18 -4 9 -8 28 -9 42 -1 21 -7 25 -36 28 l-35 3 3 -46z"/>
<path d="M2322 183 c-5 -15 -13 -36 -17 -45 -4 -11 -3 -18 4 -18 6 0 11 7 11
15 0 8 7 15 16 15 10 0 14 -6 10 -15 -4 -11 1 -15 19 -15 l24 0 -19 42 c-23
52 -35 57 -48 21z"/>
<path d="M2415 165 c0 -39 3 -45 22 -45 17 0 20 4 16 23 -3 12 -2 19 2 15 9
-9 34 32 28 45 -2 4 -19 7 -36 7 -31 0 -32 -1 -32 -45z m50 26 c3 -5 1 -12 -5
-16 -5 -3 -10 1 -10 9 0 18 6 21 15 7z"/>
<path d="M2510 194 c0 -8 5 -12 10 -9 6 4 10 -8 10 -29 0 -29 4 -36 20 -36 16
0 20 7 20 36 0 21 4 33 10 29 6 -3 10 1 10 9 0 12 -10 16 -40 16 -30 0 -40 -4
-40 -16z"/>
</g>
</svg>
